PathFileType	4	(X/Y/Z)	/Users/itak/Documents/Research/Walk-IL/dataset/trc/00402_00012.trc
DataRate	CameraRate	NumFrames	NumMarkers	Units	OrigDataRate	OrigDataStartFrame	OrigNumFrames
100.000000	100.000000	4	53	mm	100.000000	166	667
Frame#	Time	RPSI			LPSI			L3			STRN			T10			C7			CLAV			RBAK			LBAK			LSHO			LUPA			LAEL			LAOL			LWTS			LWPS			LFRA			LIFD			LHPS			LHTS			RSHO			RUPA			RAEL			RAOL			RWTS			RWPS			RFRA			RIFD			RHTS			RHPS			RBHD			LFHD			RFHD			LBHD			LHIP			RHIP			RASI			LASI			LKNE			LTHI			LANK			LTIP			LTOE			LMT1			LMT5			LHEE			RKNE			RTHI			RANK			RTIP			RTOE			RMT1			RMT5			RHEE			
		X1	Y1	Z1	X2	Y2	Z2	X3	Y3	Z3	X4	Y4	Z4	X5	Y5	Z5	X6	Y6	Z6	X7	Y7	Z7	X8	Y8	Z8	X9	Y9	Z9	X10	Y10	Z10	X11	Y11	Z11	X12	Y12	Z12	X13	Y13	Z13	X14	Y14	Z14	X15	Y15	Z15	X16	Y16	Z16	X17	Y17	Z17	X18	Y18	Z18	X19	Y19	Z19	X20	Y20	Z20	X21	Y21	Z21	X22	Y22	Z22	X23	Y23	Z23	X24	Y24	Z24	X25	Y25	Z25	X26	Y26	Z26	X27	Y27	Z27	X28	Y28	Z28	X29	Y29	Z29	X30	Y30	Z30	X31	Y31	Z31	X32	Y32	Z32	X33	Y33	Z33	X34	Y34	Z34	X35	Y35	Z35	X36	Y36	Z36	X37	Y37	Z37	X38	Y38	Z38	X39	Y39	Z39	X40	Y40	Z40	X41	Y41	Z41	X42	Y42	Z42	X43	Y43	Z43	X44	Y44	Z44	X45	Y45	Z45	X46	Y46	Z46	X47	Y47	Z47	X48	Y48	Z48	X49	Y49	Z49	X50	Y50	Z50	X51	Y51	Z51	X52	Y52	Z52	X53	Y53	Z53	

167	1.66	990.3695068359375	950.954833984375	988.4821166992188	889.3264770507812	933.1766967773438	903.8585815429688	941.9212036132812	1027.711791992188	940.256591796875	1106.344970703125	1183.359985351562	775.9865112304688	922.1976318359375	1127.279541015625	937.9814453125	939.8646240234375	1377.151733398438	907.0195922851562	1064.692504882812	1302.625366210938	810.8215942382812	948.9801025390625	1231.784423828125	984.3054809570312	861.1644897460938	1340.699096679688	838.9265747070312	894.7048950195312	1359.400756835938	745.89111328125	829.506591796875	1241.845092773438	712.6314697265625	823.374267578125	1045.97119140625	685.363525390625	828.2195434570312	1023.4052734375	767.94189453125	941.182861328125	862.2147827148438	612.46337890625	862.8341674804688	836.4429321289062	607.84716796875	835.7864990234375	949.7337036132812	654.9510498046875	961.6805419921875	687.0467529296875	577.3961181640625	890.4297485351562	757.8555297851562	585.5230102539062	950.1005859375	772.47509765625	566.9837646484375	1083.413818359375	1357.53125	992.48876953125	1102.371337890625	1296.590698242188	1048.186889648438	1098.348876953125	1038.911865234375	1103.096435546875	1047.913330078125	1026.200073242188	1025.30419921875	1189.388427734375	808.6870727539062	1065.404663085938	1165.45654296875	809.3301391601562	1134.842407226562	1121.055786132812	974.4385986328125	1119.510620117188	1168.994384765625	638.30224609375	1087.94189453125	1199.427856445312	704.389404296875	1091.891235351562	1158.034545898438	721.3115234375	1144.440307617188	1027.148559570312	1572.37744140625	944.5598754882812	1004.280090332031	1567.767700195312	745.3494873046875	1092.925537109375	1587.10302734375	827.9473876953125	899.011962890625	1543.210815429688	847.7848510742188	864.1344604492188	916.6847534179688	764.341552734375	1133.8017578125	942.32763671875	1000.505981445312	1177.217407226562	951.4617919921875	864.7366943359375	969.596435546875	920.4332885742188	704.2062377929688	964.4747314453125	428.2606201171875	751.7399291992188	942.624755859375	563.1154174804688	744.97314453125	724.8731079101562	169.0620422363281	1031.973022460938	835.9628295898438	284.0494995117188	886.748291015625	878.0574340820312	29.26712799072266	1046.617309570312	850.974853515625	87.58637237548828	1076.801879882812	781.6616821289062	58.40091323852539	1005.265441894531	741.69775390625	214.3393402099609	1079.5556640625	1248.020263671875	476.1746215820312	854.9280395507812	1225.341674804688	732.4405517578125	906.7723999023438	1236.764770507812	45.33221054077148	884.6932373046875	1258.1318359375	349.409912109375	834.0652465820312	1285.083740234375	32.78214645385742	702.5678100585938	1217.156616210938	36.93112182617188	746.7677612304688	1288.55810546875	34.16335296630859	820.1513671875	1152.402954101562	30.47718620300293	915.6219482421875	
168	1.67	999.4170532226562	952.5115966796875	982.7764282226562	897.1117553710938	933.5557250976562	899.861572265625	950.7764892578125	1028.988037109375	934.6865234375	1112.038330078125	1184.219116210938	767.5050048828125	931.6074829101562	1128.550170898438	932.7583618164062	948.6426391601562	1378.462890625	901.6668090820312	1071.321166992188	1303.600830078125	802.9419555664062	959.5631103515625	1233.212158203125	979.1834106445312	868.4906005859375	1341.870849609375	835.2467041015625	900.0738525390625	1360.425415039062	741.4627685546875	834.5044555664062	1242.640625	709.4606323242188	829.2899169921875	1046.565063476562	681.9800415039062	834.5643920898438	1024.33154296875	764.5468139648438	943.2942504882812	858.7222900390625	611.697998046875	864.2333984375	835.0806884765625	607.6007690429688	840.0616455078125	949.5374145507812	652.7249755859375	958.5546264648438	682.08056640625	580.9336547851562	889.4697265625	755.2579956054688	586.8480834960938	949.6497192382812	767.6218872070312	568.1610107421875	1094.095703125	1358.989990234375	984.02587890625	1114.643798828125	1297.952270507812	1039.455444335938	1112.672485351562	1040.107543945312	1094.224487304688	1059.407348632812	1027.700561523438	1018.408081054688	1202.330322265625	810.024658203125	1052.967651367188	1180.666381835938	810.3946533203125	1123.1435546875	1135.860717773438	975.5867919921875	1109.711669921875	1182.829956054688	639.622314453125	1075.31884765625	1213.368774414062	705.65283203125	1078.69482421875	1173.656616210938	722.3224487304688	1132.600708007812	1036.342407226562	1573.73291015625	937.5545654296875	1010.294860839844	1569.050048828125	738.6373901367188	1100.250122070312	1588.265502929688	819.7921142578125	906.6371459960938	1544.687133789062	842.7070922851562	869.93701171875	917.0396728515625	760.7440185546875	1143.041259765625	943.9470825195312	992.7977905273438	1184.702880859375	952.2352905273438	856.3513793945312	974.6334228515625	921.5097045898438	698.9683227539062	976.9909057617188	430.1777648925781	737.3677978515625	953.1339721679688	564.3121948242188	733.7911987304688	738.6913452148438	175.908203125	1021.801147460938	849.3914184570312	287.7084350585938	874.2622680664062	888.3389892578125	29.51504707336426	1032.232055664062	863.996826171875	91.40713500976562	1063.861083984375	791.7772216796875	63.14457321166992	994.0110473632812	757.3963623046875	220.5028839111328	1069.184814453125	1252.34521484375	475.35498046875	852.0117797851562	1232.412963867188	732.3487548828125	901.263916015625	1236.828247070312	45.23895263671875	884.7789306640625	1261.327758789062	348.3875427246094	832.0258178710938	1284.973022460938	32.80904388427734	702.5401611328125	1217.148071289062	36.95232391357422	746.763916015625	1288.641723632812	34.16552352905273	820.1972045898438	1152.396362304688	30.54254913330078	915.6599731445312	
169	1.68	1008.235290527344	954.0618286132812	977.1194458007812	904.7239990234375	934.0933837890625	895.8810424804688	959.4102783203125	1030.366821289062	929.2320556640625	1117.509765625	1185.0537109375	759.0405883789062	940.8785400390625	1129.907592773438	927.7246704101562	957.2787475585938	1379.832885742188	896.2019653320312	1077.719604492188	1304.523193359375	795.04638671875	970.061279296875	1234.710571289062	974.0144653320312	875.7044067382812	1343.07421875	831.5287475585938	905.2745361328125	1361.38037109375	736.9995727539062	839.2251586914062	1243.380615234375	706.4800415039062	834.5923461914062	1047.097045898438	679.0147094726562	840.6386108398438	1025.232788085938	761.6142578125	945.0999755859375	855.62353515625	611.2470703125	865.4357299804688	833.9033203125	607.64990234375	843.871826171875	949.37060546875	650.92138671875	955.7463989257812	677.8809204101562	584.55029296875	888.5574340820312	753.01953125	588.4115600585938	949.1452026367188	763.3781127929688	569.5855712890625	1104.569213867188	1360.487426757812	975.4242553710938	1126.739013671875	1299.306518554688	1030.5693359375	1127.159301757812	1041.256469726562	1085.048461914062	1070.815307617188	1029.22021484375	1011.415344238281	1215.30126953125	811.3738403320312	1040.121704101562	1196.137084960938	811.5571899414062	1111.025268554688	1150.899291992188	976.7388916015625	1099.54736328125	1196.836059570312	640.9660034179688	1062.629516601562	1227.44384765625	706.9749755859375	1065.184326171875	1189.619506835938	723.466796875	1120.488647460938	1045.4375	1575.055297851562	930.3928833007812	1016.126953125	1570.344848632812	731.856689453125	1107.421630859375	1589.416870117188	811.492919921875	914.14013671875	1546.193725585938	837.573486328125	875.5970458984375	917.6532592773438	757.1820678710938	1151.98583984375	945.3670043945312	985.1529541015625	1191.937133789062	952.9251098632812	848.0686645507812	979.5056762695312	922.751708984375	693.7703247070312	989.4940185546875	432.5316467285156	722.9442138671875	963.5914916992188	565.9502563476562	722.5040893554688	753.4827880859375	181.6318969726562	1011.294372558594	863.2552490234375	291.182373046875	861.5097045898438	900.3114013671875	30.18124008178711	1015.256591796875	878.4174194335938	94.59970092773438	1049.220092773438	803.527587890625	68.14590454101562	980.77490234375	773.7080078125	225.1405181884766	1058.8720703125	1256.306396484375	474.5532531738281	848.989990234375	1238.988037109375	732.1912231445312	895.712646484375	1236.85888671875	45.21150970458984	884.82421875	1264.16552734375	347.412109375	829.9094848632812	1284.855346679688	32.80889129638672	702.4855346679688	1217.122436523438	36.92365264892578	746.72705078125	1288.6748046875	34.16289901733398	820.196044921875	1152.386840820312	30.63005828857422	915.6624145507812	
170	1.69	1016.814025878906	955.6167602539062	971.465087890625	912.148193359375	934.843505859375	891.8378295898438	967.75634765625	1031.852172851562	923.9258422851562	1122.808349609375	1185.921020507812	750.6272583007812	949.97119140625	1131.367309570312	922.83837890625	965.7587280273438	1381.278564453125	890.634765625	1083.908935546875	1305.448608398438	787.16650390625	980.4052734375	1236.2998046875	968.7674560546875	882.8107299804688	1344.334228515625	827.759521484375	910.3416137695312	1362.299194335938	732.5048217773438	843.7265014648438	1244.10888671875	703.6642456054688	839.2855834960938	1047.619873046875	676.51318359375	846.4578247070312	1026.165893554688	759.1578369140625	946.6028442382812	852.9356689453125	611.0543212890625	866.437255859375	832.8999633789062	608.0355834960938	847.2152099609375	949.245361328125	649.5797119140625	953.3046875	674.417724609375	588.1559448242188	887.6987915039062	751.1151123046875	590.2229614257812	948.5845336914062	759.7451782226562	571.1869506835938	1114.79833984375	1362.049560546875	966.71826171875	1138.601928710938	1300.699584960938	1021.561218261719	1141.733276367188	1042.410888671875	1075.550903320312	1082.123901367188	1030.795776367188	1004.300964355469	1228.29150390625	812.7832641601562	1026.872314453125	1211.814086914062	812.86474609375	1098.468383789062	1166.096435546875	977.937255859375	1088.996459960938	1211.001342773438	642.3696899414062	1049.852172851562	1241.6201171875	708.3948974609375	1051.362548828125	1205.881469726562	724.7864990234375	1108.075317382812	1054.409057617188	1576.352294921875	923.0576171875	1021.779357910156	1571.660400390625	725.00390625	1114.434204101562	1590.573486328125	803.05810546875	921.5260620117188	1547.730102539062	832.3788452148438	881.1522827148438	918.5626220703125	753.5779418945312	1160.621459960938	946.6093139648438	977.5709838867188	1198.94921875	953.5933227539062	839.9037475585938	984.2724609375	924.188232421875	688.609375	1001.892150878906	435.3384399414062	708.5115356445312	973.9476318359375	568.039306640625	711.1425170898438	769.1636352539062	186.153076171875	1000.383911132812	877.4874877929688	294.3972778320312	848.5178833007812	913.7659301757812	31.17901039123535	996.0692138671875	894.025634765625	96.97216796875	1033.0498046875	816.7503662109375	73.072998046875	965.749755859375	790.625244140625	228.2137298583984	1048.494018554688	1259.928588867188	473.7772827148438	845.808349609375	1245.125854492188	732.0426635742188	890.001953125	1236.861328125	45.24507141113281	884.8153686523438	1266.66357421875	346.4928588867188	827.6637573242188	1284.738891601562	32.76862335205078	702.4024658203125	1217.083740234375	36.84698486328125	746.659912109375	1288.664794921875	34.15426254272461	820.1561889648438	1152.390380859375	30.75351142883301	915.637451171875	
